<svg width="32" height="32" viewBox="0 0 32 32" fill="none" xmlns="http://www.w3.org/2000/svg">
<g clip-path="url(#clip0_1_6)">
<rect width="32" height="32" fill="#BA6121"/>
<g clip-path="url(#clip1_1_6)">
<rect width="67" height="67" transform="translate(-17 -17)" fill="white"/>
<path fill-rule="evenodd" clip-rule="evenodd" d="M16.5 -17C7.61525 -17 -0.905608 -13.4705 -7.18808 -7.18808C-13.4705 -0.905608 -17 7.61525 -17 16.5C-17 25.3848 -13.4705 33.9056 -7.18808 40.1881C-0.905608 46.4705 7.61525 50 16.5 50C25.3848 50 33.9056 46.4705 40.1881 40.1881C46.4705 33.9056 50 25.3848 50 16.5C50 7.61525 46.4705 -0.905608 40.1881 -7.18808C33.9056 -13.4705 25.3848 -17 16.5 -17ZM27.9151 2.41325C28.0938 2.41325 28.2725 2.48304 28.4079 2.61844L30.3816 4.59215C30.4464 4.65653 30.498 4.73308 30.5333 4.81741C30.5685 4.90174 30.5868 4.99219 30.5871 5.0836C30.5873 5.175 30.5696 5.26556 30.5348 5.35009C30.5 5.43462 30.4489 5.51146 30.3844 5.57621L28.9048 7.05579C29.0346 7.18721 29.1074 7.36449 29.1074 7.54922C29.1074 7.73395 29.0346 7.91123 28.9048 8.04265L28.4106 8.53956L28.9048 9.03229C29.2969 9.42511 29.5172 9.9575 29.5172 10.5126C29.5172 11.0676 29.2969 11.6 28.9048 11.9929L21.9954 18.9022C21.8634 19.0315 21.686 19.1039 21.5013 19.1039C21.3165 19.1039 21.1391 19.0315 21.0071 18.9022C20.8763 18.7714 20.8028 18.5939 20.8028 18.4088C20.8028 18.2237 20.8763 18.0463 21.0071 17.9154L27.9165 11.006C28.0474 10.8751 28.1209 10.6976 28.1209 10.5126C28.1209 10.3275 28.0474 10.15 27.9165 10.0191L27.421 9.52642L9.16629 27.7839C9.12861 27.8202 9.08254 27.8398 9.04067 27.8663C9.01973 27.8802 9.00717 27.904 8.98483 27.9151L5.03602 29.8888C4.90525 29.9555 4.75669 29.9791 4.61172 29.956C4.46674 29.9329 4.33282 29.8644 4.22923 29.7604L3.7351 30.2545C3.60304 30.3842 3.42536 30.4569 3.24028 30.4569C3.0552 30.4569 2.87752 30.3842 2.74546 30.2545C2.68046 30.1897 2.6289 30.1127 2.59371 30.0279C2.55853 29.9431 2.54042 29.8522 2.54042 29.7604C2.54042 29.6686 2.55853 29.5777 2.59371 29.4929C2.6289 29.4081 2.68046 29.3311 2.74546 29.2663L3.23958 28.7736C3.13567 28.67 3.06707 28.5362 3.04351 28.3914C3.01996 28.2465 3.04265 28.098 3.10838 27.9668L5.08488 24.0194C5.09604 23.997 5.11837 23.9859 5.13094 23.9635C5.15885 23.9216 5.177 23.8756 5.21469 23.8379L24.9546 4.09802C25.0854 3.96718 25.2629 3.89368 25.448 3.89368C25.6331 3.89368 25.8105 3.96718 25.9414 4.09802L27.421 2.61844C27.4858 2.55336 27.5628 2.50172 27.6476 2.46651C27.7324 2.43129 27.8233 2.41319 27.9151 2.41325ZM27.9151 4.09523L26.9283 5.08208L27.421 5.57621L27.9179 6.06894L28.902 5.08208L27.9151 4.09523ZM25.4473 5.579L21.4999 9.52921L24.7899 10.1853L26.9311 8.04544L27.4238 7.55271L25.4473 5.579ZM20.3106 10.7157L19.5234 11.5029L22.8134 12.159L23.5992 11.3717L20.3106 10.7157ZM18.3369 12.6894L17.5497 13.4794L20.8396 14.1355L21.6283 13.3454L18.3369 12.6894ZM16.3632 14.6631L6.69706 24.3292L7.68392 25.3161L8.67077 26.3029L19.6546 15.3191L16.3632 14.6631ZM5.90004 25.5101L4.58377 28.1413L4.85875 28.4162L7.4899 27.1028L6.69706 26.3071L5.90144 25.5115L5.90004 25.5101Z" fill="#BA6121"/>
</g>
</g>
<defs>
<clipPath id="clip0_1_6">
<rect width="32" height="32" fill="white"/>
</clipPath>
<clipPath id="clip1_1_6">
<rect width="67" height="67" fill="white" transform="translate(-17 -17)"/>
</clipPath>
</defs>
</svg>
